<svg width="9" height="13" viewBox="0 0 9 13" fill="none" xmlns="http://www.w3.org/2000/svg">
<path style='fill: #fff' d="M8.70225 7.74881C8.61619 7.55863 8.42706 7.4375 8.21881 7.4375H6.09381V0.53125C6.09381 0.238 5.85581 0 5.56256 0H3.43757C3.14432 0 2.90632 0.238 2.90632 0.53125V7.4375H0.781315C0.573065 7.4375 0.38394 7.55969 0.297878 7.74881C0.210753 7.939 0.244753 8.16106 0.381815 8.31831L4.10057 12.5683C4.2015 12.6841 4.34706 12.75 4.50006 12.75C4.65306 12.75 4.79863 12.6831 4.89957 12.5683L8.61832 8.31831C8.75644 8.16212 8.78831 7.939 8.70225 7.74881Z" fill="#1A2E35"/>
</svg>
