<svg width="17" height="17" viewBox="0 0 17 17" fill="none" xmlns="http://www.w3.org/2000/svg">
<path d="M12.7023 7.74881C12.6162 7.55863 12.4271 7.4375 12.2188 7.4375H10.0938V0.53125C10.0938 0.238 9.85581 0 9.56256 0H7.43757C7.14432 0 6.90632 0.238 6.90632 0.53125V7.4375H4.78132C4.57307 7.4375 4.38394 7.55969 4.29788 7.74881C4.21075 7.939 4.24475 8.16106 4.38182 8.31831L8.10057 12.5683C8.2015 12.6841 8.34706 12.75 8.50006 12.75C8.65306 12.75 8.79863 12.6831 8.89957 12.5683L12.6183 8.31831C12.7564 8.16212 12.7883 7.939 12.7023 7.74881Z" fill="#1A2E35"/>
<path d="M14.3438 11.6875V14.875H2.65625V11.6875H0.53125V15.9375C0.53125 16.5251 1.00725 17 1.59375 17H15.4062C15.9938 17 16.4688 16.5251 16.4688 15.9375V11.6875H14.3438Z" fill="#1A2E35"/>
</svg>
