<svg width="15" height="15" viewBox="0 0 15 15" fill="none" xmlns="http://www.w3.org/2000/svg">
<path d="M7.50006 0C4.5046 0 2.06763 2.43697 2.06763 5.4324C2.06763 9.14983 6.92912 14.6072 7.1361 14.8377C7.33052 15.0543 7.66995 15.0539 7.86401 14.8377C8.071 14.6072 12.9325 9.14983 12.9325 5.4324C12.9324 2.43697 10.4955 0 7.50006 0ZM7.50006 13.7616C5.86392 11.8181 3.04591 7.98375 3.04591 5.43246C3.04591 2.97639 5.04401 0.978281 7.50006 0.978281C9.9561 0.978281 11.9542 2.97639 11.9542 5.43243C11.9542 7.98384 9.13661 11.8175 7.50006 13.7616Z" fill="black"/>
<path d="M7.50001 2.69925C5.99292 2.69925 4.76685 3.92535 4.76685 5.43244C4.76685 6.93953 5.99295 8.16564 7.50001 8.16564C9.00707 8.16564 10.2331 6.93953 10.2331 5.43244C10.2331 3.92535 9.00707 2.69925 7.50001 2.69925ZM7.50001 7.18736C6.53233 7.18736 5.74513 6.40012 5.74513 5.43244C5.74513 4.46477 6.53236 3.67753 7.50001 3.67753C8.46765 3.67753 9.25489 4.46477 9.25489 5.43244C9.25489 6.40012 8.46765 7.18736 7.50001 7.18736Z" fill="black"/>
</svg>
