<?xml version="1.0" encoding="UTF-8"?>
<svg xmlns="http://www.w3.org/2000/svg" xmlns:xlink="http://www.w3.org/1999/xlink" width="30px" height="30px" viewBox="0 0 30 30" version="1.1">
<g id="surface1">
<path style="fill: #fff;" d="M 28.910156 1.441406 L 22.816406 0.0351562 C 22.152344 -0.117188 21.472656 0.230469 21.207031 0.847656 L 18.394531 7.410156 C 18.144531 7.988281 18.308594 8.660156 18.796875 9.050781 L 22.347656 11.957031 C 20.238281 16.453125 16.550781 20.191406 11.964844 22.339844 L 9.058594 18.792969 C 8.660156 18.304688 7.992188 18.140625 7.417969 18.386719 L 0.855469 21.199219 C 0.230469 21.472656 -0.117188 22.152344 0.0351562 22.816406 L 1.441406 28.910156 C 1.589844 29.542969 2.152344 30 2.8125 30 C 17.816406 30 30 17.839844 30 2.8125 C 30 2.15625 29.550781 1.589844 28.910156 1.441406 Z M 28.910156 1.441406 "/>
</g>
</svg>
