<svg width="37" height="43" viewBox="0 0 37 43" fill="none" xmlns="http://www.w3.org/2000/svg">
<path d="M32.367 13.2709C31.7592 13.2709 31.1805 13.3978 30.655 13.6257C30.016 12.0111 28.4488 10.8664 26.6201 10.8664C25.9407 10.8664 25.2973 11.0245 24.7243 11.3057C23.9991 9.90753 22.5456 8.95009 20.8734 8.95009C20.3819 8.95009 19.9099 9.03392 19.4689 9.18637V4.37254C19.469 1.96164 17.521 0 15.1263 0C12.7319 0 10.784 1.96164 10.784 4.37254V21.6946L7.65647 18.1165C7.63461 18.092 7.61231 18.068 7.58915 18.045C6.76795 17.2232 5.67499 16.7675 4.51168 16.7619C4.50415 16.7619 4.49705 16.7619 4.48953 16.7619C3.32896 16.7619 2.24238 17.21 1.42798 18.025C-0.0079565 19.4614 -0.0874413 21.5934 1.21052 23.8753C2.89071 26.8274 4.71712 29.611 6.32868 32.0672C7.50633 33.8622 8.61883 35.5575 9.43206 36.9593C10.1373 38.1758 12.0093 42.1209 12.0284 42.1607C12.2714 42.6734 12.7881 43.0002 13.3551 43.0002H31.9261C32.5642 43.0002 33.129 42.5886 33.3246 41.9816C33.6709 40.9046 36.7094 31.355 36.7094 27.667V17.6439C36.7091 15.2324 34.7614 13.2709 32.367 13.2709ZM30.9626 17.6438C30.9626 16.8521 31.5927 16.2081 32.367 16.2081C33.1417 16.2081 33.7718 16.8521 33.7718 17.6438V27.6668C33.7718 30.1177 31.8882 36.7065 30.8488 40.0627H14.2812C13.6723 38.7956 12.531 36.4484 11.9728 35.4857C11.1191 34.0136 9.98498 32.2853 8.78446 30.4555C7.19679 28.0362 5.39759 25.2937 3.7633 22.4227C3.33678 21.6726 2.94587 20.6613 3.50559 20.1016C3.76663 19.84 4.11816 19.7033 4.49749 19.6992C4.86769 19.7011 5.21589 19.8407 5.48272 20.0932L11.1471 26.5729C11.5496 27.0337 12.1965 27.1963 12.769 26.9813C13.342 26.7661 13.7215 26.2181 13.7215 25.6063V4.37254C13.7215 3.58102 14.3517 2.93732 15.1265 2.93732C15.9013 2.93732 16.5317 3.58102 16.5317 4.37254V18.0849C16.5317 18.896 17.1894 19.5536 18.0004 19.5536C18.8113 19.5536 19.469 18.896 19.469 18.0849V13.3222C19.469 12.5311 20.0991 11.8876 20.8735 11.8876C21.6483 11.8876 22.2784 12.5311 22.2784 13.3222V20.0005C22.2784 20.812 22.9359 21.4693 23.7469 21.4693C24.5579 21.4693 25.2157 20.8122 25.2157 20.0005V15.2389C25.2157 14.4474 25.8458 13.8036 26.6202 13.8036C27.3951 13.8036 28.0254 14.4474 28.0254 15.2389V21.9177C28.0254 22.7286 28.683 23.3865 29.4941 23.3865C30.3053 23.3865 30.9629 22.7286 30.9629 21.9177L30.9626 17.6438Z" fill="white"/>
</svg>
