<svg width="255" height="56" viewBox="0 0 255 56" fill="none" xmlns="http://www.w3.org/2000/svg">
<path d="M109.681 52.3258H109.147V51.2768H109.715C110.287 51.2768 110.573 51.0737 110.573 50.6756C110.573 50.5139 110.511 50.3771 110.382 50.2776C110.258 50.1781 110.075 50.1283 109.847 50.1283C109.453 50.1283 109.113 50.2817 108.831 50.5844L107.861 49.9044C108.346 49.3073 109.072 49.0088 110.038 49.0088C110.685 49.0088 111.191 49.1415 111.556 49.4068C111.921 49.6722 112.103 50.0122 112.103 50.4268C112.103 51.0073 111.834 51.4261 111.299 51.6873C111.975 51.9402 112.315 52.4129 112.315 53.1053C112.315 53.6278 112.116 54.0383 111.722 54.3409C111.328 54.6436 110.76 54.7929 110.026 54.7929C108.968 54.7929 108.226 54.4695 107.803 53.8227L108.719 53.1095C109.001 53.4909 109.404 53.6775 109.926 53.6775C110.2 53.6775 110.415 53.6153 110.561 53.4868C110.71 53.3624 110.784 53.1924 110.784 52.9851C110.789 52.5456 110.42 52.3258 109.681 52.3258Z" fill="white"/>
<path d="M113.53 54.3285C113.177 54.0217 112.999 53.5905 112.999 53.039C112.999 52.4875 113.185 52.0688 113.559 51.7785C113.932 51.4883 114.434 51.3432 115.068 51.3432H116.175V51.0197C116.175 50.7005 116.109 50.4807 115.972 50.3646C115.839 50.2485 115.574 50.1905 115.18 50.1905C114.89 50.1905 114.67 50.2195 114.521 50.2817C114.371 50.3398 114.243 50.46 114.131 50.6383L113.127 49.9334C113.326 49.5976 113.6 49.3612 113.936 49.2203C114.272 49.0793 114.736 49.0088 115.317 49.0088C116.105 49.0088 116.681 49.1622 117.038 49.469C117.394 49.7759 117.573 50.2941 117.573 51.0322V54.6975H116.175V54.2083C115.935 54.6022 115.532 54.8012 114.968 54.8012C114.363 54.7929 113.886 54.6395 113.53 54.3285ZM116.171 52.6036V52.3922H115.234C114.674 52.3922 114.396 52.5995 114.396 53.0183C114.396 53.437 114.666 53.6444 115.213 53.6444C115.549 53.6444 115.794 53.5656 115.943 53.4039C116.092 53.2422 116.171 52.9768 116.171 52.6036Z" fill="white"/>
<path d="M120.675 51.2767L121.902 49.1123H123.465L121.935 51.8157L123.623 54.6974H121.981L120.708 52.475H120.14V54.6974H118.709V49.1123H120.14V51.2767H120.675Z" fill="white"/>
<path d="M128.694 51.5546V52.2263C128.694 53.039 128.491 53.6692 128.085 54.1212C127.678 54.5731 127.077 54.797 126.281 54.797C125.497 54.797 124.9 54.5731 124.489 54.1212C124.075 53.6692 123.872 53.039 123.872 52.2263V51.5546C123.872 50.7295 124.079 50.0993 124.489 49.6639C124.904 49.2285 125.501 49.0088 126.281 49.0088C127.06 49.0088 127.662 49.2244 128.072 49.6556C128.487 50.0868 128.694 50.7212 128.694 51.5546ZM126.281 53.5863C126.944 53.5863 127.276 53.1178 127.276 52.1807V51.6002C127.276 50.6756 126.944 50.2154 126.281 50.2154C125.617 50.2154 125.286 50.6756 125.286 51.6002V52.1807C125.286 52.6492 125.36 53.0017 125.514 53.238C125.667 53.4702 125.924 53.5863 126.281 53.5863Z" fill="white"/>
<path d="M129.64 49.1084H131.07V51.2313H132.824V49.1084H134.255V54.6935H132.824V52.4503H131.07V54.6935H129.64V49.1084Z" fill="white"/>
<path d="M135.396 49.1084H136.826V51.2313H138.58V49.1084H140.011V54.6935H138.58V52.4503H136.826V54.6935H135.396V49.1084Z" fill="white"/>
<path d="M145.77 51.5546V52.2263C145.77 53.039 145.567 53.6692 145.161 54.1212C144.754 54.5731 144.153 54.797 143.357 54.797C142.573 54.797 141.976 54.5731 141.566 54.1212C141.151 53.6692 140.948 53.039 140.948 52.2263V51.5546C140.948 50.7295 141.155 50.0993 141.566 49.6639C141.98 49.2285 142.577 49.0088 143.357 49.0088C144.137 49.0088 144.738 49.2244 145.148 49.6556C145.563 50.0868 145.77 50.7212 145.77 51.5546ZM143.357 53.5863C144.02 53.5863 144.352 53.1178 144.352 52.1807V51.6002C144.352 50.6756 144.02 50.2154 143.357 50.2154C142.694 50.2154 142.362 50.6756 142.362 51.6002V52.1807C142.362 52.6492 142.436 53.0017 142.59 53.238C142.743 53.4702 143 53.5863 143.357 53.5863Z" fill="white"/>
<path d="M149.98 53.1056L151.041 53.8436C150.676 54.478 149.996 54.7931 148.997 54.7931C148.209 54.7931 147.595 54.5651 147.164 54.1048C146.733 53.6487 146.517 53.0351 146.517 52.268V51.5093C146.517 50.6924 146.716 50.0663 147.11 49.6434C147.504 49.2205 148.076 49.0049 148.819 49.0049C150.353 49.0049 151.12 49.8756 151.12 51.6171V52.2514H147.935C147.948 53.1387 148.3 53.5783 148.984 53.5783C149.254 53.5783 149.457 53.5451 149.594 53.4705C149.731 53.4124 149.859 53.288 149.98 53.1056ZM148.831 50.2156C148.296 50.2156 147.997 50.5597 147.939 51.2439H149.693C149.652 50.5556 149.366 50.2156 148.831 50.2156Z" fill="white"/>
<path d="M158.198 53.1053L159.26 53.8434C158.895 54.4778 158.219 54.7929 157.228 54.7929C156.448 54.7929 155.835 54.569 155.395 54.117C154.956 53.6651 154.736 53.0514 154.736 52.2678V51.509C154.736 50.6963 154.956 50.0785 155.395 49.6515C155.835 49.2244 156.473 49.0088 157.307 49.0088C158.215 49.0088 158.866 49.3198 159.26 49.9376L158.19 50.688C157.966 50.3729 157.659 50.2195 157.274 50.2195C156.527 50.2195 156.158 50.6798 156.158 51.6044V52.1849C156.158 52.6327 156.237 52.9768 156.39 53.2256C156.56 53.4702 156.855 53.5946 157.274 53.5946C157.705 53.5863 158.016 53.4288 158.198 53.1053Z" fill="white"/>
<path d="M159.919 54.6935V49.1084H164.53V54.6935H163.1V50.315H161.346V54.6935H159.919Z" fill="white"/>
<path d="M165.671 49.1084H167.102V52.1559L169.237 49.1084H170.465V54.6935H169.046V51.534L166.89 54.6935H165.671V49.1084Z" fill="white"/>
<path d="M174.877 53.1053L175.938 53.8434C175.573 54.4778 174.897 54.7929 173.906 54.7929C173.127 54.7929 172.513 54.569 172.073 54.117C171.634 53.6651 171.414 53.0514 171.414 52.2678V51.509C171.414 50.6963 171.634 50.0785 172.073 49.6515C172.513 49.2244 173.152 49.0088 173.985 49.0088C174.893 49.0088 175.544 49.3198 175.938 49.9376L174.868 50.688C174.644 50.3729 174.338 50.2195 173.952 50.2195C173.205 50.2195 172.836 50.6798 172.836 51.6044V52.1849C172.836 52.6327 172.915 52.9768 173.069 53.2256C173.239 53.4702 173.533 53.5946 173.952 53.5946C174.379 53.5863 174.69 53.4288 174.877 53.1053Z" fill="white"/>
<path d="M176.846 54.3285C176.494 54.0217 176.315 53.5905 176.315 53.039C176.315 52.4875 176.502 52.0688 176.875 51.7785C177.248 51.4883 177.75 51.3432 178.385 51.3432H179.492V51.0197C179.492 50.7005 179.425 50.4807 179.289 50.3646C179.156 50.2485 178.891 50.1905 178.497 50.1905C178.206 50.1905 177.987 50.2195 177.837 50.2817C177.688 50.3398 177.559 50.46 177.447 50.6383L176.444 49.9334C176.643 49.5976 176.917 49.3612 177.253 49.2203C177.588 49.0793 178.053 49.0088 178.633 49.0088C179.421 49.0088 179.998 49.1622 180.354 49.469C180.711 49.7759 180.889 50.2941 180.889 51.0322V54.6975H179.492V54.2083C179.251 54.6022 178.849 54.8012 178.285 54.8012C177.68 54.7929 177.199 54.6395 176.846 54.3285ZM179.488 52.6036V52.3922H178.551C177.991 52.3922 177.713 52.5995 177.713 53.0183C177.713 53.437 177.982 53.6444 178.53 53.6444C178.866 53.6444 179.11 53.5656 179.26 53.4039C179.409 53.2422 179.488 52.9768 179.488 52.6036Z" fill="white"/>
<path d="M182.021 49.1084H183.452V51.2313H185.206V49.1084H186.637V54.6935H185.206V52.4503H183.452V54.6935H182.021V49.1084Z" fill="white"/>
<path d="M187.773 49.1084H189.204V52.1559L191.339 49.1084H192.567V54.6935H191.148V51.534L188.992 54.6935H187.773V49.1084Z" fill="white"/>
<path d="M196.979 53.1056L198.04 53.8436C197.675 54.478 196.995 54.7931 195.996 54.7931C195.208 54.7931 194.594 54.5651 194.163 54.1048C193.732 53.6487 193.516 53.0351 193.516 52.268V51.5093C193.516 50.6924 193.715 50.0663 194.109 49.6434C194.503 49.2205 195.075 49.0049 195.818 49.0049C197.352 49.0049 198.119 49.8756 198.119 51.6171V52.2514H194.934C194.947 53.1387 195.299 53.5783 195.983 53.5783C196.253 53.5783 196.456 53.5451 196.593 53.4705C196.73 53.4124 196.858 53.288 196.979 53.1056ZM195.826 50.2156C195.291 50.2156 194.992 50.5597 194.934 51.2439H196.688C196.647 50.5556 196.361 50.2156 195.826 50.2156Z" fill="white"/>
<path d="M202.809 54.6935V55.9995H201.503V53.4869H201.938C202.1 53.3625 202.245 53.1386 202.361 52.8152C202.523 52.413 202.606 51.6252 202.606 50.4477V49.1084H206.769V53.4869H207.507V55.9995H206.213V54.6935H202.809ZM203.543 53.3749L203.489 53.4869H205.355V50.315H203.958V50.6633C203.958 51.9196 203.821 52.8235 203.543 53.3749Z" fill="white"/>
<path d="M212.894 51.5546V52.2263C212.894 53.039 212.691 53.6692 212.284 54.1212C211.878 54.5731 211.277 54.797 210.481 54.797C209.697 54.797 209.1 54.5731 208.689 54.1212C208.274 53.6692 208.071 53.039 208.071 52.2263V51.5546C208.071 50.7295 208.279 50.0993 208.689 49.6639C209.104 49.2285 209.701 49.0088 210.481 49.0088C211.26 49.0088 211.861 49.2244 212.272 49.6556C212.687 50.0868 212.894 50.7212 212.894 51.5546ZM210.481 53.5863C211.144 53.5863 211.476 53.1178 211.476 52.1807V51.6002C211.476 50.6756 211.144 50.2154 210.481 50.2154C209.817 50.2154 209.485 50.6756 209.485 51.6002V52.1807C209.485 52.6492 209.56 53.0017 209.713 53.238C209.867 53.4702 210.124 53.5863 210.481 53.5863Z" fill="white"/>
<path d="M214.287 50.9533V49.1123H218.496V54.6974H217.078V50.3189H215.635V51.6125C215.635 52.1847 215.61 52.6118 215.556 52.8979C215.511 53.1964 215.423 53.4784 215.287 53.7479C214.938 54.4196 214.291 54.7762 213.354 54.8176V53.5654C213.74 53.4535 213.997 53.2296 214.113 52.8937C214.233 52.5911 214.287 51.9401 214.287 50.9533Z" fill="white"/>
<path d="M219.636 49.1084H223.344V50.315H221.063V54.6935H219.632V49.1084H219.636Z" fill="white"/>
<path d="M228.428 51.5546V52.2263C228.428 53.039 228.224 53.6692 227.818 54.1212C227.412 54.5731 226.81 54.797 226.014 54.797C225.231 54.797 224.633 54.5731 224.223 54.1212C223.808 53.6692 223.605 53.039 223.605 52.2263V51.5546C223.605 50.7295 223.812 50.0993 224.223 49.6639C224.638 49.2285 225.235 49.0088 226.014 49.0088C226.794 49.0088 227.395 49.2244 227.806 49.6556C228.22 50.0868 228.428 50.7212 228.428 51.5546ZM226.014 53.5863C226.678 53.5863 227.009 53.1178 227.009 52.1807V51.6002C227.009 50.6756 226.678 50.2154 226.014 50.2154C225.351 50.2154 225.019 50.6756 225.019 51.6002V52.1807C225.019 52.6492 225.094 53.0017 225.247 53.238C225.401 53.4702 225.658 53.5863 226.014 53.5863Z" fill="white"/>
<path d="M229.377 54.6935V49.1084H231.612C232.997 49.1084 233.69 49.5811 233.69 50.5264C233.69 50.7959 233.619 51.0281 233.478 51.2189C233.337 51.4137 233.155 51.5589 232.931 51.6542C233.267 51.7496 233.528 51.9237 233.723 52.1684C233.918 52.413 234.013 52.7115 234.013 53.064C234.013 53.5615 233.835 53.9596 233.482 54.254C233.13 54.5484 232.591 54.6935 231.869 54.6935H229.377ZM231.343 50.2155H230.808V51.2769H231.413C231.911 51.2769 232.16 51.1028 232.16 50.7503C232.156 50.3938 231.886 50.2155 231.343 50.2155ZM231.533 52.3259H230.808V53.5864H231.625C232.197 53.5864 232.483 53.3791 232.483 52.9603C232.483 52.7364 232.413 52.5747 232.272 52.4752C232.126 52.3757 231.882 52.3259 231.533 52.3259Z" fill="white"/>
<path d="M107.811 0.928549C107.811 0.414407 108.205 0.0205078 108.719 0.0205078H118.033C118.547 0.0205078 118.941 0.414407 118.941 0.928549V1.83659C118.941 2.35073 118.547 2.74463 118.033 2.74463H111.444V12.9445C111.444 13.438 111.029 13.8319 110.536 13.8319H108.719C108.226 13.8319 107.811 13.438 107.811 12.9445V0.928549Z" fill="white"/>
<path d="M128.769 0.0205078C132.439 0.0205078 134.591 1.67903 134.591 5.38583C134.591 9.09677 132.439 10.7553 128.769 10.7553H124.154V12.9238C124.154 13.4172 123.76 13.8319 123.246 13.8319H121.429C120.936 13.8319 120.521 13.4172 120.521 12.9238V0.928549C120.521 0.414407 120.915 0.0205078 121.409 0.0205078H128.769ZM124.154 2.74048V8.02702H127.666C129.561 8.02702 130.963 7.63312 130.963 5.38168C130.963 3.13024 129.561 2.73634 127.666 2.73634H124.154V2.74048Z" fill="white"/>
<path d="M137.062 3.76877C137.871 0.708794 140.653 0.0205078 143.457 0.0205078H148.648C149.121 0.0205078 149.478 0.435138 149.478 0.907817V12.9445C149.478 13.438 149.063 13.8319 148.57 13.8319H146.753C146.239 13.8319 145.845 13.438 145.845 12.9238V10.4982H138.999L138.348 12.9238C138.211 13.438 137.718 13.8319 137.203 13.8319H135.308C134.794 13.8319 134.5 13.438 134.636 12.9445L137.062 3.76877ZM139.708 7.7741H145.845V2.74048H143.1C141.856 2.74048 140.869 3.49097 140.554 4.67266L139.708 7.7741Z" fill="white"/>
<path d="M160.807 13.8321C160.313 13.8321 159.899 13.4382 159.899 12.9448V8.26773H159.463C158.219 8.26773 157.489 9.07626 156.76 10.2414L155.063 12.924C154.748 13.4382 154.077 13.8321 153.583 13.8321H151.373C150.859 13.8321 150.722 13.4382 151.037 12.924L153.446 9.09699C153.998 8.247 154.985 7.04457 155.934 6.84555C154.591 6.53043 153.94 5.60166 153.446 4.71435L151.352 0.924626C151.058 0.393899 151.157 0 151.651 0H153.882C154.375 0 154.91 0.294388 155.263 0.928772L156.764 3.5907C157.535 4.97142 158.344 5.54361 159.467 5.54361H159.903V0.928772C159.903 0.414631 160.317 0 160.811 0H162.627C163.121 0 163.535 0.414631 163.535 0.928772V5.54776H163.971C165.094 5.54776 165.903 4.97557 166.674 3.59485L168.176 0.932919C168.524 0.294388 169.055 0 169.548 0H171.779C172.272 0 172.372 0.393899 172.073 0.928772L169.983 4.7185C169.49 5.6058 168.839 6.53458 167.495 6.8497C168.445 7.04457 169.432 8.25115 169.983 9.10114L172.393 12.9282C172.708 13.4423 172.571 13.8362 172.057 13.8362H169.847C169.353 13.8362 168.681 13.4423 168.366 12.9282L166.67 10.2455C165.94 9.08041 165.211 8.27188 163.967 8.27188H163.531V12.9489C163.531 13.4423 163.116 13.8362 162.623 13.8362H160.807V13.8321Z" fill="white"/>
<path d="M176.025 3.81023C176.776 0.729526 179.48 0.0205078 182.283 0.0205078H187.491C187.984 0.0205078 188.399 0.414407 188.399 0.907817V12.9445C188.399 13.438 187.984 13.8319 187.491 13.8319H173.479C172.986 13.8319 172.571 13.4172 172.571 12.9238V11.995C172.571 11.5016 172.986 11.1077 173.479 11.1077H174.23L176.025 3.81023ZM177.941 11.1077H184.771V2.74048H181.889C180.665 2.74048 179.836 3.47023 179.558 4.63535L177.941 11.1077Z" fill="white"/>
<path d="M192.451 3.76877C193.259 0.708794 196.042 0.0205078 198.845 0.0205078H204.037C204.509 0.0205078 204.866 0.435138 204.866 0.907817V12.9445C204.866 13.438 204.451 13.8319 203.958 13.8319H202.141C201.627 13.8319 201.233 13.438 201.233 12.9238V10.4982H194.387L193.736 12.9238C193.599 13.438 193.106 13.8319 192.592 13.8319H190.696C190.182 13.8319 189.888 13.438 190.025 12.9445L192.451 3.76877ZM195.092 7.7741H201.229V2.74048H198.484C197.24 2.74048 196.253 3.49097 195.938 4.67266L195.092 7.7741Z" fill="white"/>
<path d="M217.891 7.98971H211.26V12.9404C211.26 13.4338 210.846 13.8277 210.352 13.8277H208.557C208.042 13.8277 207.628 13.4131 207.628 12.9197V0.928549C207.628 0.414407 208.042 0.0205078 208.557 0.0205078H210.352C210.846 0.0205078 211.26 0.414407 211.26 0.928549V5.26973H217.891V0.928549C217.891 0.414407 218.306 0.0205078 218.799 0.0205078H220.595C221.109 0.0205078 221.523 0.414407 221.523 0.928549V12.9238C221.523 13.4172 221.109 13.8319 220.595 13.8319H218.799C218.306 13.8319 217.891 13.438 217.891 12.9445V7.98971Z" fill="white"/>
<path d="M235.734 13.8319C235.241 13.8319 234.826 13.4172 234.826 12.9238V3.98438L229.796 12.9238C229.518 13.4172 228.909 13.8319 228.395 13.8319H225.197C224.683 13.8319 224.289 13.4172 224.289 12.9238V0.928549C224.289 0.414407 224.683 0.0205078 225.197 0.0205078H226.893C227.387 0.0205078 227.802 0.414407 227.802 0.907817V10.5563L233.288 0.928549C233.566 0.45587 234.138 0.0205078 234.611 0.0205078H237.451C237.945 0.0205078 238.338 0.435138 238.338 0.928549V12.9238C238.338 13.4172 237.924 13.8319 237.43 13.8319H235.734Z" fill="white"/>
<path d="M251.367 7.98971H244.737V12.9404C244.737 13.4338 244.322 13.8277 243.829 13.8277H242.033C241.519 13.8277 241.104 13.4131 241.104 12.9197V0.928549C241.104 0.414407 241.519 0.0205078 242.033 0.0205078H243.829C244.322 0.0205078 244.737 0.414407 244.737 0.928549V5.26973H251.367V0.928549C251.367 0.414407 251.782 0.0205078 252.276 0.0205078H254.071C254.585 0.0205078 255 0.414407 255 0.928549V12.9238C255 13.4172 254.585 13.8319 254.071 13.8319H252.276C251.782 13.8319 251.367 13.438 251.367 12.9445V7.98971Z" fill="white"/>
<path d="M119.111 28.0834C123.1 28.0834 126.181 29.8912 126.181 33.9836C126.181 38.076 123.096 39.8838 119.111 39.8838H108.981C108.317 39.8838 107.811 39.353 107.811 38.6855V22.5025C107.811 21.81 108.342 21.2793 109.035 21.2793H123.656C124.319 21.2793 124.879 21.81 124.879 22.5025V23.7256C124.879 24.389 124.349 24.9488 123.685 24.9488H112.704V28.0875H119.111V28.0834ZM112.7 31.7529V36.2184H119.107C120.517 36.2184 121.288 35.4762 121.288 33.9836C121.288 32.4951 120.517 31.7487 119.107 31.7487H112.7V31.7529Z" fill="white"/>
<path d="M130.573 26.3295C131.663 22.2081 135.412 21.2793 139.185 21.2793H146.177C146.815 21.2793 147.292 21.8349 147.292 22.4734V38.6896C147.292 39.353 146.737 39.8879 146.069 39.8879H143.622C142.93 39.8879 142.399 39.3572 142.399 38.6648V35.3933H133.173L132.293 38.6648C132.107 39.3572 131.443 39.8879 130.751 39.8879H128.196C127.504 39.8879 127.106 39.3572 127.293 38.6896L130.573 26.3295ZM134.135 31.728H142.403V24.9488H138.708C137.033 24.9488 135.706 25.9605 135.279 27.5527L134.135 31.728Z" fill="white"/>
<path d="M164.85 32.0182H155.918V38.6896C155.918 39.353 155.358 39.8879 154.695 39.8879H152.277C151.584 39.8879 151.029 39.3282 151.029 38.6648V22.5025C151.029 21.81 151.589 21.2793 152.277 21.2793H154.695C155.358 21.2793 155.918 21.81 155.918 22.5025V28.3488H164.85V22.5025C164.85 21.81 165.41 21.2793 166.073 21.2793H168.495C169.187 21.2793 169.743 21.81 169.743 22.5025V38.6648C169.743 39.3282 169.183 39.8879 168.495 39.8879H166.073C165.41 39.8879 164.85 39.3572 164.85 38.6896V32.0182Z" fill="white"/>
<path d="M174.69 39.8874C174.026 39.8874 173.467 39.3277 173.467 38.6394V22.5019C173.467 21.8095 174.026 21.2539 174.69 21.2539H177.136C177.8 21.2539 178.36 21.8137 178.36 22.5019V28.7214H181.15C182.664 28.7214 183.755 27.9502 184.791 26.0885L186.811 22.5019C187.288 21.652 188.009 21.2539 188.673 21.2539H191.675C192.338 21.2539 192.471 21.7846 192.073 22.5019L189.257 27.606C188.594 28.8002 187.715 30.0524 185.907 30.4753C187.184 30.7407 188.511 32.3619 189.257 33.5062L192.5 38.6642C192.923 39.3567 192.741 39.8874 192.048 39.8874H189.071C188.407 39.8874 187.503 39.3567 187.076 38.6642L184.787 35.0487C183.804 33.4814 182.822 32.3909 181.146 32.3909H178.356V38.6891C178.356 39.3525 177.796 39.8874 177.132 39.8874H174.69Z" fill="white"/>
<path d="M205.72 21.2793C210.667 21.2793 213.566 23.5142 213.566 28.5105C213.566 33.5109 210.667 35.7416 205.72 35.7416H199.5V38.6648C199.5 39.3282 198.969 39.8879 198.277 39.8879H195.83C195.167 39.8879 194.607 39.3282 194.607 38.6648V22.5025C194.607 21.81 195.137 21.2793 195.801 21.2793H205.72ZM199.5 24.9488V32.0721H204.231C206.782 32.0721 208.672 31.5414 208.672 28.5105C208.672 25.4795 206.786 24.9488 204.231 24.9488H199.5Z" fill="white"/>
<path d="M225.351 20.8809C231.998 20.8809 235.801 23.6713 235.801 30.5832C235.801 37.4951 231.998 40.2856 225.351 40.2856C218.704 40.2856 214.901 37.4951 214.901 30.5832C214.901 23.6713 218.704 20.8809 225.351 20.8809ZM219.79 30.5832C219.79 34.572 221.358 36.7778 225.347 36.7778C229.336 36.7778 230.903 34.572 230.903 30.5832C230.903 26.5945 229.336 24.3886 225.347 24.3886C221.362 24.3886 219.79 26.5945 219.79 30.5832Z" fill="white"/>
<path d="M253.777 21.2793C254.469 21.2793 255 21.81 255 22.5025V23.7256C255 24.4181 254.469 24.9488 253.777 24.9488H247.98V38.6938C247.98 39.3572 247.42 39.8921 246.756 39.8921H244.31C243.646 39.8921 243.086 39.3613 243.086 38.6938V24.9488H237.289C236.597 24.9488 236.066 24.4181 236.066 23.7256V22.5025C236.066 21.81 236.597 21.2793 237.289 21.2793H253.777Z" fill="white"/>
<path d="M93.3516 54.6647H95.1223C95.2508 54.6647 95.3586 54.5569 95.3586 54.4283V0.256847C95.3586 0.128312 95.2508 0.0205078 95.1223 0.0205078H93.3516C93.223 0.0205078 93.1152 0.128312 93.1152 0.256847V54.4283C93.1152 54.561 93.223 54.6647 93.3516 54.6647Z" fill="white"/>
<path d="M37.8889 18.2728H20.2569V6.55116H43.0433C43.5243 6.55116 43.9597 6.24848 44.1256 5.79654L45.6848 1.55072C45.9626 0.800237 45.4028 0 44.6025 0H14.8537C14.2193 0 13.7009 0.514142 13.7009 1.15267V23.6713C13.7009 24.3056 14.2151 24.8239 14.8537 24.8239H36.3297C36.8107 24.8239 37.2462 24.5213 37.412 24.0693L38.9712 19.8235C39.249 19.0689 38.6934 18.2728 37.8889 18.2728Z" fill="#008BCE"/>
<path d="M14.8619 54.7314H19.0958C19.7344 54.7314 20.2527 54.2131 20.2527 53.5746V38.0218H31.4738C31.959 38.0218 32.3944 37.7191 32.5602 37.263L34.1526 32.9301C34.4304 32.1755 33.8706 31.3711 33.0661 31.3711H1.15694C0.518343 31.3752 0 31.8935 0 32.5321V36.8649C0 37.5035 0.518343 38.0218 1.15694 38.0218H13.7008V53.5704C13.705 54.2131 14.2233 54.7314 14.8619 54.7314Z" fill="#008BCE"/>
<path d="M50.9428 6.55116L60.4471 6.5636L60.4305 18.2852L45.7759 18.2645C45.2949 18.2645 44.8637 18.563 44.6936 19.015L43.1262 23.2608C42.8483 24.0113 43.404 24.8073 44.2043 24.8115L65.8213 24.8405C66.4558 24.8405 66.9741 24.3264 66.9741 23.692L67.0031 1.1734C67.0031 0.53902 66.4889 0.0207315 65.8545 0.0207315L52.5103 0C52.0292 0 51.598 0.298534 51.428 0.750481L49.8605 4.9963C49.5868 5.75093 50.1425 6.54702 50.9428 6.55116Z" fill="white"/>
<path d="M39.3859 38.0054L60.4016 38.0344L60.3767 53.554C60.3767 54.2092 60.9075 54.7399 61.5627 54.7399L65.7426 54.744C66.3978 54.744 66.9286 54.2133 66.9327 53.5582L66.9576 38.0386L79.4725 38.0552C80.1277 38.0552 80.6585 37.5244 80.6626 36.8693L80.6667 32.5945C80.6667 31.9394 80.136 31.4086 79.4808 31.4045L40.9658 31.3506C40.4682 31.3506 40.0245 31.6616 39.8503 32.1259L38.2746 36.4008C37.9884 37.1844 38.5607 38.0054 39.3859 38.0054Z" fill="white"/>
</svg>
