<svg width="255" height="56" viewBox="0 0 255 56" fill="none" xmlns="http://www.w3.org/2000/svg">
<path d="M109.681 52.3261H109.147V51.277H109.715C110.287 51.277 110.573 51.0739 110.573 50.6758C110.573 50.5141 110.511 50.3773 110.382 50.2778C110.258 50.1783 110.075 50.1285 109.847 50.1285C109.453 50.1285 109.113 50.2819 108.831 50.5846L107.861 49.9046C108.346 49.3076 109.072 49.009 110.038 49.009C110.685 49.009 111.191 49.1417 111.556 49.4071C111.921 49.6724 112.103 50.0124 112.103 50.4271C112.103 51.0075 111.834 51.4263 111.299 51.6875C111.975 51.9405 112.315 52.4131 112.315 53.1056C112.315 53.628 112.116 54.0385 111.722 54.3412C111.328 54.6439 110.76 54.7931 110.026 54.7931C108.968 54.7931 108.226 54.4697 107.803 53.8229L108.719 53.1097C109.001 53.4912 109.404 53.6778 109.926 53.6778C110.2 53.6778 110.415 53.6156 110.561 53.487C110.71 53.3626 110.784 53.1926 110.784 52.9853C110.789 52.5458 110.42 52.3261 109.681 52.3261Z" fill="#1A2E35"/>
<path d="M113.53 54.329C113.177 54.0222 112.999 53.591 112.999 53.0395C112.999 52.4881 113.185 52.0693 113.559 51.7791C113.932 51.4888 114.434 51.3437 115.068 51.3437H116.175V51.0203C116.175 50.701 116.109 50.4813 115.972 50.3652C115.839 50.2491 115.574 50.191 115.18 50.191C114.89 50.191 114.67 50.22 114.521 50.2822C114.371 50.3403 114.243 50.4605 114.131 50.6388L113.127 49.934C113.326 49.5981 113.6 49.3618 113.936 49.2208C114.272 49.0798 114.736 49.0093 115.317 49.0093C116.105 49.0093 116.681 49.1627 117.038 49.4696C117.394 49.7764 117.573 50.2947 117.573 51.0327V54.6981H116.175V54.2088C115.935 54.6027 115.532 54.8017 114.968 54.8017C114.363 54.7934 113.886 54.64 113.53 54.329ZM116.171 52.6042V52.3927H115.234C114.674 52.3927 114.396 52.6 114.396 53.0188C114.396 53.4376 114.666 53.6449 115.213 53.6449C115.549 53.6449 115.794 53.5661 115.943 53.4044C116.092 53.2427 116.171 52.9773 116.171 52.6042Z" fill="#1A2E35"/>
<path d="M120.675 51.277L121.902 49.1127H123.465L121.935 51.8161L123.623 54.6977H121.981L120.708 52.4753H120.14V54.6977H118.709V49.1127H120.14V51.277H120.675V51.277Z" fill="#1A2E35"/>
<path d="M128.694 51.5552V52.2269C128.694 53.0395 128.491 53.6698 128.085 54.1217C127.678 54.5737 127.077 54.7976 126.281 54.7976C125.497 54.7976 124.9 54.5737 124.489 54.1217C124.075 53.6698 123.872 53.0395 123.872 52.2269V51.5552C123.872 50.73 124.079 50.0998 124.489 49.6644C124.904 49.2291 125.501 49.0093 126.281 49.0093C127.06 49.0093 127.662 49.2249 128.072 49.6561C128.487 50.0874 128.694 50.7217 128.694 51.5552ZM126.281 53.5868C126.944 53.5868 127.276 53.1183 127.276 52.1812V51.6008C127.276 50.6761 126.944 50.2159 126.281 50.2159C125.617 50.2159 125.286 50.6761 125.286 51.6008V52.1812C125.286 52.6498 125.36 53.0022 125.514 53.2385C125.667 53.4707 125.924 53.5868 126.281 53.5868Z" fill="#1A2E35"/>
<path d="M129.64 49.1085H131.07V51.2314H132.824V49.1085H134.255V54.6936H132.824V52.4505H131.07V54.6936H129.64V49.1085Z" fill="#1A2E35"/>
<path d="M135.396 49.1085H136.826V51.2314H138.58V49.1085H140.011V54.6936H138.58V52.4505H136.826V54.6936H135.396V49.1085Z" fill="#1A2E35"/>
<path d="M145.77 51.5552V52.2269C145.77 53.0395 145.567 53.6698 145.161 54.1217C144.754 54.5737 144.153 54.7976 143.357 54.7976C142.573 54.7976 141.976 54.5737 141.566 54.1217C141.151 53.6698 140.948 53.0395 140.948 52.2269V51.5552C140.948 50.73 141.155 50.0998 141.566 49.6644C141.98 49.2291 142.577 49.0093 143.357 49.0093C144.137 49.0093 144.738 49.2249 145.148 49.6561C145.563 50.0874 145.77 50.7217 145.77 51.5552ZM143.357 53.5868C144.02 53.5868 144.352 53.1183 144.352 52.1812V51.6008C144.352 50.6761 144.02 50.2159 143.357 50.2159C142.694 50.2159 142.362 50.6761 142.362 51.6008V52.1812C142.362 52.6498 142.436 53.0022 142.59 53.2385C142.743 53.4707 143 53.5868 143.357 53.5868Z" fill="#1A2E35"/>
<path d="M149.98 53.1059L151.041 53.8439C150.676 54.4783 149.996 54.7934 148.997 54.7934C148.209 54.7934 147.595 54.5654 147.164 54.1051C146.733 53.6491 146.517 53.0354 146.517 52.2683V51.5096C146.517 50.6927 146.716 50.0666 147.11 49.6437C147.504 49.2208 148.076 49.0052 148.819 49.0052C150.353 49.0052 151.12 49.8759 151.12 51.6174V52.2517H147.935C147.948 53.1391 148.3 53.5786 148.984 53.5786C149.254 53.5786 149.457 53.5454 149.594 53.4708C149.731 53.4127 149.859 53.2883 149.98 53.1059ZM148.831 50.2159C148.296 50.2159 147.997 50.5601 147.939 51.2442H149.693C149.652 50.5559 149.366 50.2159 148.831 50.2159Z" fill="#1A2E35"/>
<path d="M158.198 53.1059L159.26 53.8439C158.895 54.4783 158.219 54.7934 157.228 54.7934C156.448 54.7934 155.835 54.5695 155.395 54.1176C154.956 53.6656 154.736 53.052 154.736 52.2683V51.5095C154.736 50.6969 154.956 50.0791 155.395 49.652C155.835 49.2249 156.473 49.0093 157.307 49.0093C158.215 49.0093 158.866 49.3203 159.26 49.9381L158.19 50.6886C157.966 50.3735 157.659 50.22 157.274 50.22C156.527 50.22 156.158 50.6803 156.158 51.6049V52.1854C156.158 52.6332 156.237 52.9773 156.39 53.2261C156.56 53.4707 156.855 53.5951 157.274 53.5951C157.705 53.5868 158.016 53.4293 158.198 53.1059Z" fill="#1A2E35"/>
<path d="M159.919 54.6936V49.1085H164.53V54.6936H163.1V50.3151H161.346V54.6936H159.919Z" fill="#1A2E35"/>
<path d="M165.671 49.1085H167.102V52.1561L169.237 49.1085H170.465V54.6936H169.046V51.5341L166.89 54.6936H165.671V49.1085V49.1085Z" fill="#1A2E35"/>
<path d="M174.877 53.1059L175.938 53.8439C175.573 54.4783 174.897 54.7934 173.906 54.7934C173.127 54.7934 172.513 54.5695 172.073 54.1176C171.634 53.6656 171.414 53.052 171.414 52.2683V51.5095C171.414 50.6969 171.634 50.0791 172.073 49.652C172.513 49.2249 173.152 49.0093 173.985 49.0093C174.893 49.0093 175.544 49.3203 175.938 49.9381L174.868 50.6886C174.644 50.3735 174.338 50.22 173.952 50.22C173.205 50.22 172.836 50.6803 172.836 51.6049V52.1854C172.836 52.6332 172.915 52.9773 173.069 53.2261C173.239 53.4707 173.533 53.5951 173.952 53.5951C174.379 53.5868 174.69 53.4293 174.877 53.1059Z" fill="#1A2E35"/>
<path d="M176.846 54.329C176.494 54.0222 176.315 53.591 176.315 53.0395C176.315 52.4881 176.502 52.0693 176.875 51.7791C177.248 51.4888 177.75 51.3437 178.385 51.3437H179.492V51.0203C179.492 50.701 179.425 50.4813 179.289 50.3652C179.156 50.2491 178.891 50.191 178.497 50.191C178.206 50.191 177.987 50.22 177.837 50.2822C177.688 50.3403 177.559 50.4605 177.447 50.6388L176.444 49.934C176.643 49.5981 176.917 49.3618 177.253 49.2208C177.588 49.0798 178.053 49.0093 178.633 49.0093C179.421 49.0093 179.998 49.1627 180.354 49.4696C180.711 49.7764 180.889 50.2947 180.889 51.0327V54.6981H179.492V54.2088C179.251 54.6027 178.849 54.8017 178.285 54.8017C177.68 54.7934 177.199 54.64 176.846 54.329ZM179.488 52.6042V52.3927H178.551C177.991 52.3927 177.713 52.6 177.713 53.0188C177.713 53.4376 177.982 53.6449 178.53 53.6449C178.866 53.6449 179.11 53.5661 179.26 53.4044C179.409 53.2427 179.488 52.9773 179.488 52.6042Z" fill="#1A2E35"/>
<path d="M182.021 49.1085H183.452V51.2314H185.206V49.1085H186.637V54.6936H185.206V52.4505H183.452V54.6936H182.021V49.1085Z" fill="#1A2E35"/>
<path d="M187.773 49.1085H189.204V52.1561L191.339 49.1085H192.567V54.6936H191.148V51.5341L188.992 54.6936H187.773V49.1085V49.1085Z" fill="#1A2E35"/>
<path d="M196.979 53.1059L198.04 53.8439C197.675 54.4783 196.995 54.7934 195.996 54.7934C195.208 54.7934 194.594 54.5654 194.163 54.1051C193.732 53.6491 193.516 53.0354 193.516 52.2683V51.5096C193.516 50.6927 193.715 50.0666 194.109 49.6437C194.503 49.2208 195.075 49.0052 195.818 49.0052C197.352 49.0052 198.119 49.8759 198.119 51.6174V52.2517H194.934C194.947 53.1391 195.299 53.5786 195.983 53.5786C196.253 53.5786 196.456 53.5454 196.593 53.4708C196.73 53.4127 196.858 53.2883 196.979 53.1059ZM195.826 50.2159C195.291 50.2159 194.992 50.5601 194.934 51.2442H196.688C196.647 50.5559 196.361 50.2159 195.826 50.2159Z" fill="#1A2E35"/>
<path d="M202.809 54.6936V55.9997H201.503V53.487H201.938C202.1 53.3626 202.245 53.1387 202.361 52.8153C202.523 52.4131 202.606 51.6253 202.606 50.4478V49.1085H206.769V53.487H207.507V55.9997H206.213V54.6936H202.809ZM203.543 53.3751L203.489 53.487H205.355V50.3151H203.958V50.6634C203.958 51.9197 203.821 52.8236 203.543 53.3751Z" fill="#1A2E35"/>
<path d="M212.894 51.5552V52.2269C212.894 53.0395 212.691 53.6698 212.284 54.1217C211.878 54.5737 211.277 54.7976 210.481 54.7976C209.697 54.7976 209.1 54.5737 208.689 54.1217C208.274 53.6698 208.071 53.0395 208.071 52.2269V51.5552C208.071 50.73 208.279 50.0998 208.689 49.6644C209.104 49.2291 209.701 49.0093 210.481 49.0093C211.26 49.0093 211.861 49.2249 212.272 49.6561C212.687 50.0874 212.894 50.7217 212.894 51.5552ZM210.481 53.5868C211.144 53.5868 211.476 53.1183 211.476 52.1812V51.6008C211.476 50.6761 211.144 50.2159 210.481 50.2159C209.817 50.2159 209.485 50.6761 209.485 51.6008V52.1812C209.485 52.6498 209.56 53.0022 209.713 53.2385C209.867 53.4707 210.124 53.5868 210.481 53.5868Z" fill="#1A2E35"/>
<path d="M214.287 50.9536V49.1127H218.496V54.6977H217.078V50.3192H215.635V51.6129C215.635 52.1851 215.61 52.6122 215.556 52.8983C215.511 53.1968 215.423 53.4787 215.287 53.7482C214.938 54.4199 214.291 54.7765 213.354 54.818V53.5658C213.74 53.4539 213.997 53.23 214.113 52.8941C214.233 52.5914 214.287 51.9405 214.287 50.9536Z" fill="#1A2E35"/>
<path d="M219.636 49.1085H223.344V50.3151H221.063V54.6936H219.632V49.1085H219.636Z" fill="#1A2E35"/>
<path d="M228.428 51.5552V52.2269C228.428 53.0395 228.224 53.6698 227.818 54.1217C227.412 54.5737 226.81 54.7976 226.014 54.7976C225.231 54.7976 224.633 54.5737 224.223 54.1217C223.808 53.6698 223.605 53.0395 223.605 52.2269V51.5552C223.605 50.73 223.812 50.0998 224.223 49.6644C224.638 49.2291 225.235 49.0093 226.014 49.0093C226.794 49.0093 227.395 49.2249 227.806 49.6561C228.22 50.0874 228.428 50.7217 228.428 51.5552ZM226.014 53.5868C226.678 53.5868 227.009 53.1183 227.009 52.1812V51.6008C227.009 50.6761 226.678 50.2159 226.014 50.2159C225.351 50.2159 225.019 50.6761 225.019 51.6008V52.1812C225.019 52.6498 225.094 53.0022 225.247 53.2385C225.401 53.4707 225.658 53.5868 226.014 53.5868Z" fill="#1A2E35"/>
<path d="M229.377 54.6936V49.1085H231.612C232.997 49.1085 233.69 49.5812 233.69 50.5266C233.69 50.7961 233.619 51.0283 233.478 51.219C233.337 51.4139 233.155 51.559 232.931 51.6544C233.267 51.7497 233.528 51.9239 233.723 52.1685C233.918 52.4131 234.013 52.7117 234.013 53.0641C234.013 53.5617 233.835 53.9597 233.482 54.2541C233.13 54.5485 232.591 54.6936 231.869 54.6936H229.377ZM231.343 50.2156H230.808V51.2771H231.413C231.911 51.2771 232.16 51.1029 232.16 50.7505C232.156 50.3939 231.886 50.2156 231.343 50.2156ZM231.533 52.3261H230.808V53.5865H231.625C232.197 53.5865 232.483 53.3792 232.483 52.9605C232.483 52.7366 232.413 52.5748 232.272 52.4753C232.126 52.3758 231.882 52.3261 231.533 52.3261Z" fill="#1A2E35"/>
<path d="M107.811 0.928579C107.811 0.414437 108.205 0.0205383 108.719 0.0205383H118.033C118.547 0.0205383 118.941 0.414437 118.941 0.928579V1.83662C118.941 2.35076 118.547 2.74466 118.033 2.74466H111.444V12.9446C111.444 13.438 111.029 13.8319 110.536 13.8319H108.719C108.226 13.8319 107.811 13.438 107.811 12.9446V0.928579Z" fill="#1A2E35"/>
<path d="M128.769 0.0206604C132.439 0.0206604 134.591 1.67918 134.591 5.38598C134.591 9.09692 132.439 10.7554 128.769 10.7554H124.154V12.924C124.154 13.4174 123.76 13.832 123.246 13.832H121.429C120.936 13.832 120.521 13.4174 120.521 12.924V0.928701C120.521 0.414559 120.915 0.0206604 121.409 0.0206604H128.769V0.0206604ZM124.154 2.74064V8.02718H127.666C129.561 8.02718 130.963 7.63328 130.963 5.38183C130.963 3.13039 129.561 2.73649 127.666 2.73649H124.154V2.74064Z" fill="#1A2E35"/>
<path d="M137.062 3.76892C137.871 0.708947 140.653 0.0206604 143.457 0.0206604H148.648C149.121 0.0206604 149.478 0.435291 149.478 0.90797V12.9447C149.478 13.4381 149.063 13.832 148.57 13.832H146.753C146.239 13.832 145.845 13.4381 145.845 12.924V10.4984H138.999L138.348 12.924C138.211 13.4381 137.718 13.832 137.203 13.832H135.308C134.794 13.832 134.5 13.4381 134.636 12.9447L137.062 3.76892ZM139.708 7.77425H145.845V2.74064H143.1C141.856 2.74064 140.869 3.49112 140.554 4.67282L139.708 7.77425Z" fill="#1A2E35"/>
<path d="M160.807 13.8321C160.313 13.8321 159.899 13.4382 159.899 12.9448V8.26773H159.463C158.219 8.26773 157.489 9.07626 156.76 10.2414L155.063 12.924C154.748 13.4382 154.077 13.8321 153.583 13.8321H151.373C150.859 13.8321 150.722 13.4382 151.037 12.924L153.446 9.09699C153.998 8.247 154.985 7.04457 155.934 6.84555C154.591 6.53043 153.94 5.60166 153.446 4.71435L151.352 0.924626C151.058 0.393899 151.157 0 151.651 0H153.882C154.375 0 154.91 0.294388 155.263 0.928772L156.764 3.5907C157.535 4.97142 158.344 5.54361 159.467 5.54361H159.903V0.928772C159.903 0.414631 160.317 0 160.811 0H162.627C163.121 0 163.535 0.414631 163.535 0.928772V5.54776H163.971C165.094 5.54776 165.903 4.97557 166.674 3.59485L168.176 0.932919C168.524 0.294388 169.055 0 169.548 0H171.779C172.272 0 172.372 0.393899 172.073 0.928772L169.983 4.7185C169.49 5.6058 168.839 6.53458 167.495 6.8497C168.445 7.04457 169.432 8.25115 169.983 9.10114L172.393 12.9282C172.708 13.4423 172.571 13.8362 172.057 13.8362H169.847C169.353 13.8362 168.681 13.4423 168.366 12.9282L166.67 10.2455C165.94 9.08041 165.211 8.27188 163.967 8.27188H163.531V12.9489C163.531 13.4423 163.116 13.8362 162.623 13.8362H160.807V13.8321Z" fill="#1A2E35"/>
<path d="M176.025 3.81038C176.776 0.729678 179.48 0.0206604 182.283 0.0206604H187.491C187.984 0.0206604 188.399 0.414559 188.399 0.90797V12.9447C188.399 13.4381 187.984 13.832 187.491 13.832H173.479C172.986 13.832 172.571 13.4174 172.571 12.924V11.9952C172.571 11.5018 172.986 11.1079 173.479 11.1079H174.23L176.025 3.81038ZM177.941 11.1079H184.771V2.74064H181.889C180.665 2.74064 179.836 3.47039 179.558 4.6355L177.941 11.1079Z" fill="#1A2E35"/>
<path d="M192.451 3.76892C193.259 0.708947 196.042 0.0206604 198.845 0.0206604H204.037C204.509 0.0206604 204.866 0.435291 204.866 0.90797V12.9447C204.866 13.4381 204.451 13.832 203.958 13.832H202.141C201.627 13.832 201.233 13.4381 201.233 12.924V10.4984H194.387L193.736 12.924C193.599 13.4381 193.106 13.832 192.592 13.832H190.696C190.182 13.832 189.888 13.4381 190.025 12.9447L192.451 3.76892ZM195.092 7.77425H201.229V2.74064H198.484C197.24 2.74064 196.253 3.49112 195.938 4.67282L195.092 7.77425Z" fill="#1A2E35"/>
<path d="M217.891 7.98986H211.26V12.9405C211.26 13.434 210.846 13.8279 210.352 13.8279H208.557C208.042 13.8279 207.628 13.4132 207.628 12.9198V0.928701C207.628 0.414559 208.042 0.0206604 208.557 0.0206604H210.352C210.846 0.0206604 211.26 0.414559 211.26 0.928701V5.26988H217.891V0.928701C217.891 0.414559 218.306 0.0206604 218.799 0.0206604H220.595C221.109 0.0206604 221.523 0.414559 221.523 0.928701V12.924C221.523 13.4174 221.109 13.832 220.595 13.832H218.799C218.306 13.832 217.891 13.4381 217.891 12.9447V7.98986Z" fill="#1A2E35"/>
<path d="M235.734 13.832C235.241 13.832 234.826 13.4174 234.826 12.924V3.98453L229.796 12.924C229.518 13.4174 228.909 13.832 228.395 13.832H225.197C224.683 13.832 224.289 13.4174 224.289 12.924V0.928701C224.289 0.414559 224.683 0.0206604 225.197 0.0206604H226.893C227.387 0.0206604 227.802 0.414559 227.802 0.90797V10.5564L233.288 0.928701C233.566 0.456023 234.138 0.0206604 234.611 0.0206604H237.451C237.945 0.0206604 238.338 0.435291 238.338 0.928701V12.924C238.338 13.4174 237.924 13.832 237.43 13.832H235.734Z" fill="#1A2E35"/>
<path d="M251.367 7.98986H244.737V12.9405C244.737 13.434 244.322 13.8279 243.829 13.8279H242.033C241.519 13.8279 241.104 13.4132 241.104 12.9198V0.928701C241.104 0.414559 241.519 0.0206604 242.033 0.0206604H243.829C244.322 0.0206604 244.737 0.414559 244.737 0.928701V5.26988H251.367V0.928701C251.367 0.414559 251.782 0.0206604 252.276 0.0206604H254.071C254.585 0.0206604 255 0.414559 255 0.928701V12.924C255 13.4174 254.585 13.832 254.071 13.832H252.276C251.782 13.832 251.367 13.4381 251.367 12.9447V7.98986V7.98986Z" fill="#1A2E35"/>
<path d="M119.111 28.0829C123.1 28.0829 126.181 29.8907 126.181 33.9831C126.181 38.0755 123.096 39.8833 119.111 39.8833H108.981C108.317 39.8833 107.811 39.3526 107.811 38.685V22.502C107.811 21.8096 108.342 21.2788 109.035 21.2788H123.656C124.319 21.2788 124.879 21.8096 124.879 22.502V23.7252C124.879 24.3886 124.349 24.9483 123.685 24.9483H112.704V28.0871H119.111V28.0829ZM112.7 31.7524V36.218H119.107C120.517 36.218 121.288 35.4758 121.288 33.9831C121.288 32.4946 120.517 31.7483 119.107 31.7483H112.7V31.7524Z" fill="#1A2E35"/>
<path d="M130.573 26.329C131.663 22.2076 135.412 21.2788 139.185 21.2788H146.177C146.815 21.2788 147.292 21.8344 147.292 22.473V38.6892C147.292 39.3526 146.737 39.8875 146.069 39.8875H143.622C142.93 39.8875 142.399 39.3567 142.399 38.6643V35.3929H133.173L132.293 38.6643C132.107 39.3567 131.443 39.8875 130.751 39.8875H128.196C127.504 39.8875 127.106 39.3567 127.293 38.6892L130.573 26.329ZM134.135 31.7275H142.403V24.9483H138.708C137.033 24.9483 135.706 25.96 135.279 27.5522L134.135 31.7275Z" fill="#1A2E35"/>
<path d="M164.85 32.0178H155.918V38.6892C155.918 39.3526 155.358 39.8875 154.695 39.8875H152.277C151.584 39.8875 151.029 39.3277 151.029 38.6643V22.502C151.029 21.8096 151.589 21.2788 152.277 21.2788H154.695C155.358 21.2788 155.918 21.8096 155.918 22.502V28.3483H164.85V22.502C164.85 21.8096 165.41 21.2788 166.073 21.2788H168.495C169.187 21.2788 169.743 21.8096 169.743 22.502V38.6643C169.743 39.3277 169.183 39.8875 168.495 39.8875H166.073C165.41 39.8875 164.85 39.3567 164.85 38.6892V32.0178Z" fill="#1A2E35"/>
<path d="M174.69 39.8875C174.026 39.8875 173.467 39.3277 173.467 38.6394V22.502C173.467 21.8096 174.026 21.254 174.69 21.254H177.136C177.8 21.254 178.36 21.8137 178.36 22.502V28.7215H181.15C182.664 28.7215 183.755 27.9503 184.791 26.0886L186.811 22.502C187.288 21.652 188.009 21.254 188.673 21.254H191.675C192.338 21.254 192.471 21.7847 192.073 22.502L189.257 27.6061C188.594 28.8002 187.715 30.0524 185.907 30.4754C187.184 30.7407 188.511 32.3619 189.257 33.5063L192.5 38.6643C192.923 39.3567 192.741 39.8875 192.048 39.8875H189.071C188.407 39.8875 187.503 39.3567 187.076 38.6643L184.787 35.0487C183.804 33.4814 182.822 32.3909 181.146 32.3909H178.356V38.6892C178.356 39.3526 177.796 39.8875 177.132 39.8875H174.69V39.8875Z" fill="#1A2E35"/>
<path d="M205.72 21.2788C210.667 21.2788 213.566 23.5137 213.566 28.51C213.566 33.5104 210.667 35.7412 205.72 35.7412H199.5V38.6643C199.5 39.3277 198.969 39.8875 198.277 39.8875H195.83C195.167 39.8875 194.607 39.3277 194.607 38.6643V22.502C194.607 21.8096 195.137 21.2788 195.801 21.2788H205.72ZM199.5 24.9483V32.0717H204.231C206.782 32.0717 208.672 31.5409 208.672 28.51C208.672 25.479 206.786 24.9483 204.231 24.9483H199.5V24.9483Z" fill="#1A2E35"/>
<path d="M225.351 20.8808C231.998 20.8808 235.801 23.6713 235.801 30.5832C235.801 37.495 231.998 40.2855 225.351 40.2855C218.704 40.2855 214.901 37.495 214.901 30.5832C214.901 23.6713 218.704 20.8808 225.351 20.8808ZM219.79 30.5832C219.79 34.5719 221.358 36.7777 225.347 36.7777C229.336 36.7777 230.903 34.5719 230.903 30.5832C230.903 26.5944 229.336 24.3886 225.347 24.3886C221.362 24.3886 219.79 26.5944 219.79 30.5832Z" fill="#1A2E35"/>
<path d="M253.777 21.2788C254.469 21.2788 255 21.8096 255 22.502V23.7252C255 24.4176 254.469 24.9483 253.777 24.9483H247.98V38.6933C247.98 39.3567 247.42 39.8916 246.756 39.8916H244.31C243.646 39.8916 243.086 39.3609 243.086 38.6933V24.9483H237.289C236.597 24.9483 236.066 24.4176 236.066 23.7252V22.502C236.066 21.8096 236.597 21.2788 237.289 21.2788H253.777V21.2788Z" fill="#1A2E35"/>
<path d="M93.3516 54.6648H95.1223C95.2508 54.6648 95.3586 54.557 95.3586 54.4285V0.257C95.3586 0.128464 95.2508 0.0206604 95.1223 0.0206604H93.3516C93.223 0.0206604 93.1152 0.128464 93.1152 0.257V54.4285C93.1152 54.5612 93.223 54.6648 93.3516 54.6648Z" fill="#1A2E35"/>
<path d="M37.8889 18.2728H20.2569V6.55116H43.0433C43.5243 6.55116 43.9597 6.24848 44.1256 5.79654L45.6848 1.55072C45.9626 0.800237 45.4028 0 44.6025 0H14.8537C14.2193 0 13.7009 0.514142 13.7009 1.15267V23.6713C13.7009 24.3056 14.2151 24.8239 14.8537 24.8239H36.3297C36.8107 24.8239 37.2462 24.5213 37.412 24.0693L38.9712 19.8235C39.249 19.0689 38.6934 18.2728 37.8889 18.2728Z" fill="#008BCE"/>
<path d="M14.8619 54.7312H19.0958C19.7344 54.7312 20.2527 54.2129 20.2527 53.5744V38.0216H31.4738C31.959 38.0216 32.3944 37.7189 32.5602 37.2628L34.1526 32.9299C34.4304 32.1753 33.8706 31.3709 33.0661 31.3709H1.15694C0.518343 31.3751 0 31.8934 0 32.5319V36.8648C0 37.5033 0.518343 38.0216 1.15694 38.0216H13.7008V53.5703C13.705 54.2129 14.2233 54.7312 14.8619 54.7312Z" fill="#008BCE"/>
<path d="M50.9428 6.55116L60.4471 6.5636L60.4305 18.2852L45.7759 18.2645C45.2949 18.2645 44.8637 18.563 44.6936 19.015L43.1262 23.2608C42.8483 24.0113 43.404 24.8073 44.2043 24.8115L65.8213 24.8405C66.4558 24.8405 66.9741 24.3264 66.9741 23.692L67.0031 1.1734C67.0031 0.53902 66.4889 0.0207315 65.8545 0.0207315L52.5103 0C52.0292 0 51.598 0.298534 51.428 0.750481L49.8605 4.9963C49.5868 5.75093 50.1425 6.54702 50.9428 6.55116Z" fill="#1A2E35"/>
<path d="M39.3859 38.005L60.4016 38.0341L60.3767 53.5537C60.3767 54.2088 60.9075 54.7395 61.5627 54.7395L65.7426 54.7437C66.3978 54.7437 66.9286 54.2129 66.9327 53.5578L66.9576 38.0382L79.4725 38.0548C80.1277 38.0548 80.6585 37.5241 80.6626 36.8689L80.6667 32.5941C80.6667 31.939 80.136 31.4083 79.4808 31.4041L40.9658 31.3502C40.4682 31.3502 40.0245 31.6612 39.8503 32.1256L38.2746 36.4004C37.9884 37.1841 38.5607 38.005 39.3859 38.005Z" fill="#1A2E35"/>
</svg>
